<?xml version="1.0" encoding="UTF-8"?>
<svg width="24px" height="24px" viewBox="0 0 24 24" version="1.1" xmlns="http://www.w3.org/2000/svg">
    <path d="M19.321,5.562 C17.761,4.083 16.711,2.083 16.711,0 L12.967,0 L12.967,16.5 C12.967,18.433 11.41,20 9.487,20 C7.563,20 6.006,18.433 6.006,16.5 C6.006,14.567 7.563,13 9.487,13 C9.991,13 10.467,13.117 10.897,13.317 L10.897,9.452 C10.455,9.347 9.98,9.333 9.487,9.333 C5.554,9.333 2.34,12.567 2.34,16.5 C2.34,20.433 5.554,23.667 9.487,23.667 C13.42,23.667 16.634,20.433 16.634,16.5 L16.634,8.047 C18.157,9.223 19.959,10 21.894,10 L21.894,6.333 C20.979,6.333 20.107,6.067 19.321,5.562" fill="currentColor"></path>
</svg> 