<?xml version="1.0" encoding="UTF-8"?>
<svg width="24px" height="24px" viewBox="0 0 24 24" version="1.1" xmlns="http://www.w3.org/2000/svg">
    <path d="M23.498,6.186 C23.2367342,5.2826428 22.5141238,4.58200159 21.604,4.346 C19.713,3.831 12,3.831 12,3.831 C12,3.831 4.287,3.831 2.396,4.346 C1.48587616,4.58200159 0.763265751,5.2826428 0.502,6.186 C0,8.084 0,12 0,12 C0,12 0,15.916 0.502,17.814 C0.763265751,18.7173572 1.48587616,19.4179984 2.396,19.654 C4.287,20.169 12,20.169 12,20.169 C12,20.169 19.713,20.169 21.604,19.654 C22.5141238,19.4179984 23.2367342,18.7173572 23.498,17.814 C24,15.916 24,12 24,12 C24,12 24,8.084 23.498,6.186 Z M9.545,15.568 L9.545,8.432 L15.818,12 L9.545,15.568 Z" fill="currentColor"></path>
</svg> 